<svg width="20" height="20" viewBox="0 0 20 20" fill="none" xmlns="http://www.w3.org/2000/svg">
<path d="M10 18.9583C5.05835 18.9583 1.04169 14.9416 1.04169 9.99996C1.04169 5.05829 5.05835 1.04163 10 1.04163C14.9417 1.04163 18.9584 5.05829 18.9584 9.99996C18.9584 14.9416 14.9417 18.9583 10 18.9583ZM10 2.29163C5.75002 2.29163 2.29169 5.74996 2.29169 9.99996C2.29169 14.25 5.75002 17.7083 10 17.7083C14.25 17.7083 17.7084 14.25 17.7084 9.99996C17.7084 5.74996 14.25 2.29163 10 2.29163Z" fill="#A0A3BD"/>
<path d="M13.0917 13.275C12.9833 13.275 12.875 13.25 12.775 13.1833L10.1917 11.6416C9.55001 11.2583 9.07501 10.4166 9.07501 9.67497V6.2583C9.07501 5.91663 9.35835 5.6333 9.70001 5.6333C10.0417 5.6333 10.325 5.91663 10.325 6.2583V9.67497C10.325 9.97497 10.575 10.4166 10.8333 10.5666L13.4167 12.1083C13.7167 12.2833 13.8083 12.6666 13.6333 12.9666C13.5083 13.1666 13.3 13.275 13.0917 13.275Z" fill="#A0A3BD"/>
</svg>
