<svg width="22" height="17" viewBox="0 0 22 17" fill="none" xmlns="http://www.w3.org/2000/svg">
<path d="M0.166992 1.95837C0.166992 1.5274 0.338197 1.11407 0.642944 0.809325C0.94769 0.504579 1.36102 0.333374 1.79199 0.333374H20.2087C20.6396 0.333374 21.053 0.504579 21.3577 0.809325C21.6625 1.11407 21.8337 1.5274 21.8337 1.95837C21.8337 2.38935 21.6625 2.80268 21.3577 3.10742C21.053 3.41217 20.6396 3.58337 20.2087 3.58337H1.79199C1.36102 3.58337 0.94769 3.41217 0.642944 3.10742C0.338197 2.80268 0.166992 2.38935 0.166992 1.95837ZM4.50033 8.45837C4.50033 8.0274 4.67153 7.61407 4.97628 7.30933C5.28102 7.00458 5.69435 6.83337 6.12533 6.83337H15.8753C16.3063 6.83337 16.7196 7.00458 17.0244 7.30933C17.3291 7.61407 17.5003 8.0274 17.5003 8.45837C17.5003 8.88935 17.3291 9.30268 17.0244 9.60742C16.7196 9.91217 16.3063 10.0834 15.8753 10.0834H6.12533C5.69435 10.0834 5.28102 9.91217 4.97628 9.60742C4.67153 9.30268 4.50033 8.88935 4.50033 8.45837ZM9.37533 13.3334C8.94435 13.3334 8.53102 13.5046 8.22628 13.8093C7.92153 14.1141 7.75033 14.5274 7.75033 14.9584C7.75033 15.3894 7.92153 15.8027 8.22628 16.1074C8.53102 16.4122 8.94435 16.5834 9.37533 16.5834H12.6253C13.0563 16.5834 13.4696 16.4122 13.7744 16.1074C14.0791 15.8027 14.2503 15.3894 14.2503 14.9584C14.2503 14.5274 14.0791 14.1141 13.7744 13.8093C13.4696 13.5046 13.0563 13.3334 12.6253 13.3334H9.37533Z" fill="#9058FF"/>
</svg>
